999
FreeCAD v1.0 39285 (Git)
  0
SECTION
  2
HEADER
  9
$ACADVER
  1
AC1014
  9
$ACADMAINTVER
 70
     9
  9
$DWGCODEPAGE
  3
ANSI_1252
  9
$TEXTSTYLE
  7
STANDARD
  9
$DIMSTYLE
  2
STANDARD
  9
$DIMTXSTY
  7
STANDARD
  9
$CMLSTYLE
  2
STANDARD
  9
$LUNITS
 70
2
  9
$INSUNITS
 70
4
  9
$PEXTMAX
 10
50
 20
50
 30
50
  9
$PEXTMIN
 10
0
 20
0
 30
0
  9
$HANDSEED
  5
FFFF
  0
ENDSEC
  0
SECTION
  2
CLASSES
  0
CLASS
  1
ACDBDICTIONARYWDFLT
  2
AcDbDictionaryWithDefault
  3
ObjectDBX Classes
 90
        0
280
     0
281
     0
  0
CLASS
  1
XRECORD
  2
AcDbXrecord
  3
ObjectDBX Classes
 90
        0
280
     0
281
     0
  0
CLASS
  1
LWPOLYLINE
  2
AcDbPolyline
  3
ObjectDBX Classes
 90
        0
280
     0
281
     1
  0
ENDSEC
  0
SECTION
  2
TABLES
  0
TABLE
  2
VPORT
  5
20
330
0
100
AcDbSymbolTable
 70
     1
  0
VPORT
  5
21
330
20
100
AcDbSymbolTableRecord
100
AcDbViewportTableRecord
  2
*ACTIVE
 70
     0
  0
ENDTAB
  0
TABLE
  2
LTYPE
  5
22
330
0
100
AcDbSymbolTable
 70
     1
  0
LTYPE
  5
23
330
21
100
AcDbSymbolTableRecord
100
AcDbLinetypeTableRecord
  2
BYBLOCK
 70
     0
  3

 72
    65
 73
     0
 40
0.0
  0
LTYPE
  5
24
330
21
100
AcDbSymbolTableRecord
100
AcDbLinetypeTableRecord
  2
BYLAYER
 70
     0
  3

 72
    65
 73
     0
 40
0.0
  0
LTYPE
  5
25
330
21
100
AcDbSymbolTableRecord
100
AcDbLinetypeTableRecord
  2
CONTINUOUS
 70
     0
  3
Solid line
 72
    65
 73
     0
 40
0.0
  0
ENDTAB
  0
TABLE
  2
LAYER
  5
A28
330
0
100
AcDbSymbolTable
 70
13
  0
LAYER
  5
A29
330
A28
100
AcDbSymbolTableRecord
100
AcDbLayerTableRecord
  2
0
 70
   0
 62
   7
  6
CONTINUOUS
  0
LAYER
  5
A2A
330
A28
100
AcDbSymbolTableRecord
100
AcDbLayerTableRecord
  2
none
 70
    0
 62
    7
  6
CONTINUOUS
  0
LAYER
  5
A2B
330
A28
100
AcDbSymbolTableRecord
100
AcDbLayerTableRecord
  2
Polyline030
 70
    0
 62
    7
  6
CONTINUOUS
  0
LAYER
  5
A2C
330
A28
100
AcDbSymbolTableRecord
100
AcDbLayerTableRecord
  2
Polyline032
 70
    0
 62
    7
  6
CONTINUOUS
  0
LAYER
  5
A2D
330
A28
100
AcDbSymbolTableRecord
100
AcDbLayerTableRecord
  2
Circle045
 70
    0
 62
    7
  6
CONTINUOUS
  0
LAYER
  5
A2E
330
A28
100
AcDbSymbolTableRecord
100
AcDbLayerTableRecord
  2
Circle047
 70
    0
 62
    7
  6
CONTINUOUS
  0
LAYER
  5
A2F
330
A28
100
AcDbSymbolTableRecord
100
AcDbLayerTableRecord
  2
Circle048
 70
    0
 62
    7
  6
CONTINUOUS
  0
LAYER
  5
A30
330
A28
100
AcDbSymbolTableRecord
100
AcDbLayerTableRecord
  2
Polyline055
 70
    0
 62
    7
  6
CONTINUOUS
  0
LAYER
  5
A31
330
A28
100
AcDbSymbolTableRecord
100
AcDbLayerTableRecord
  2
Circle084
 70
    0
 62
    7
  6
CONTINUOUS
  0
LAYER
  5
A32
330
A28
100
AcDbSymbolTableRecord
100
AcDbLayerTableRecord
  2
Polyline058
 70
    0
 62
    7
  6
CONTINUOUS
  0
LAYER
  5
A33
330
A28
100
AcDbSymbolTableRecord
100
AcDbLayerTableRecord
  2
Polyline063
 70
    0
 62
    7
  6
CONTINUOUS
  0
LAYER
  5
A34
330
A28
100
AcDbSymbolTableRecord
100
AcDbLayerTableRecord
  2
Polyline064
 70
    0
 62
    7
  6
CONTINUOUS
  0
LAYER
  5
A35
330
A28
100
AcDbSymbolTableRecord
100
AcDbLayerTableRecord
  2
Polyline
 70
    0
 62
    7
  6
CONTINUOUS
  0
ENDTAB
  0
TABLE
  2
STYLE
  5
70
330
0
100
AcDbSymbolTable
 70
     2
  0
STYLE
  5
71
330
70
100
AcDbSymbolTableRecord
100
AcDbTextStyleTableRecord
  2
STANDARD
 70
     0
 40
0.0
 41
1.0
 50
0.0
 71
     0
 42
2.5
  3
arial.ttf
  4

  0
STYLE
  5
72
330
70
100
AcDbSymbolTableRecord
100
AcDbTextStyleTableRecord
  2
ANNOTATIVE
 70
     0
 40
0.0
 41
1.0
 50
0.0
 71
     0
 42
2.5
  3
arial.ttf
  4

  0
ENDTAB
  0
TABLE
  2
VIEW
  5
73
330
0
100
AcDbSymbolTable
 70
     0
  0
ENDTAB
  0
TABLE
  2
UCS
  5
74
330
0
100
AcDbSymbolTable
 70
     0
  0
ENDTAB
  0
TABLE
  2
APPID
  5
75
330
0
100
AcDbSymbolTable
 70
     2
  0
APPID
  5
76
330
75
100
AcDbSymbolTableRecord
100
AcDbRegAppTableRecord
  2
ACAD
 70
     0
  0
APPID
  5
77
330
75
100
AcDbSymbolTableRecord
100
AcDbRegAppTableRecord
  2
ACADANNOTATIVE
 70
     0
  0
ENDTAB
  0
TABLE
  2
DIMSTYLE
  5
78
330
0
100
AcDbSymbolTable
 70
     2
  0
DIMSTYLE
105
79
330
78
100
AcDbSymbolTableRecord
100
AcDbDimStyleTableRecord
  2
STANDARD
 70
     0
  3

  4

  5

  6

  7

 40
0.0
 41
2.5
 42
0.625
 43
3.75
 44
1.25
 45
0.0
 46
0.0
 47
0.0
 48
0.0
140
2.5
141
2.5
142
0.0
143
0.03937007874016
144
1.0
145
0.0
146
1.0
147
0.625
 71
     0
 72
     0
 73
     0
 74
     0
 75
     0
 76
     0
 77
     1
 78
     8
170
     0
171
     3
172
     1
173
     0
174
     0
175
     0
176
     0
177
     0
178
     0
270
     2
271
     2
272
     2
273
     2
274
     3
340
71
275
     0
280
     0
281
     0
282
     0
283
     0
284
     8
285
     0
286
     0
287
     3
288
     0
  0
ENDTAB
  0
TABLE
  2
BLOCK_RECORD
  5
A01
330
0
100
AcDbSymbolTable
  70
5
  0
BLOCK_RECORD
  5
A02
330
A01
100
AcDbSymbolTableRecord
100
AcDbBlockTableRecord
  2
*MODEL_SPACE
  0
BLOCK_RECORD
  5
A03
330
A01
100
AcDbSymbolTableRecord
100
AcDbBlockTableRecord
  2
*PAPER_SPACE
  0
ENDTAB
  0
ENDSEC
  0
SECTION
  2
BLOCKS
  0
BLOCK
  5
A04
330
A02
100
AcDbEntity
  8
0
100
AcDbBlockBegin
  2
*MODEL_SPACE
 70
   0
 10
0
 20
0
 30
0
  3
*MODEL_SPACE
  1
 
  0
ENDBLK
  5
A05
330
A02
100
AcDbEntity
  8
0
100
AcDbBlockEnd
  0
BLOCK
  5
A06
330
A03
100
AcDbEntity
 67
1
  8
0
100
AcDbBlockBegin
  2
*PAPER_SPACE
 70
   0
 10
0
 20
0
 30
0
  3
*PAPER_SPACE
  1
 
  0
ENDBLK
  5
A07
330
A03
100
AcDbEntity
 67
    1
  8
0
100
AcDbBlockEnd
  0
ENDSEC
  0
SECTION
  2
ENTITIES
  0
LINE
  5
A08
330
A02
100
AcDbEntity
  8
Polyline030
100
AcDbLine
 10
55.865178343
 20
-18.835626606
 30
0.000000000
 11
59.746078343
 21
-18.835626606
 31
0.000000000
  0
ARC
  5
A09
330
A02
100
AcDbEntity
  8
Polyline030
100
AcDbCircle
 10
59.746078343
 20
-19.835626606
 30
0.000000000
 40
1.000000000
100
AcDbArc
 50
-90.000000000
 51
90.000000000
  0
LINE
  5
A0A
330
A02
100
AcDbEntity
  8
Polyline030
100
AcDbLine
 10
59.746078343
 20
-20.835626606
 30
0.000000000
 11
55.865178343
 21
-20.835626606
 31
0.000000000
  0
ARC
  5
A0B
330
A02
100
AcDbEntity
  8
Polyline030
100
AcDbCircle
 10
55.865178343
 20
-19.835626606
 30
0.000000000
 40
1.000000000
100
AcDbArc
 50
90.000000000
 51
-90.000000000
  0
LINE
  5
A0C
330
A02
100
AcDbEntity
  8
Polyline032
100
AcDbLine
 10
84.845978343
 20
-20.735726606
 30
0.000000000
 11
79.845978343
 21
-20.735726606
 31
0.000000000
  0
ARC
  5
A0D
330
A02
100
AcDbEntity
  8
Polyline032
100
AcDbCircle
 10
79.845978343
 20
-19.835726606
 30
0.000000000
 40
0.900000000
100
AcDbArc
 50
90.000000000
 51
-90.000000000
  0
LINE
  5
A0E
330
A02
100
AcDbEntity
  8
Polyline032
100
AcDbLine
 10
79.845978343
 20
-18.935726606
 30
0.000000000
 11
84.845978343
 21
-18.935726606
 31
0.000000000
  0
ARC
  5
A0F
330
A02
100
AcDbEntity
  8
Polyline032
100
AcDbCircle
 10
84.845978343
 20
-19.835726606
 30
0.000000000
 40
0.900000000
100
AcDbArc
 50
-90.000000000
 51
90.000000000
  0
CIRCLE
  5
A10
330
A02
100
AcDbEntity
  8
Circle045
100
AcDbCircle
 10
69.846027232
 20
-19.835676606
 30
0.000000000
 40
3.549948889
  0
CIRCLE
  5
A11
330
A02
100
AcDbEntity
  8
Circle047
100
AcDbCircle
 10
-56.595843975
 20
-20.076136048
 30
0.000000000
 40
1.499834210
  0
CIRCLE
  5
A12
330
A02
100
AcDbEntity
  8
Circle048
100
AcDbCircle
 10
-23.607802724
 20
-20.283846314
 30
0.000000000
 40
1.324949653
  0
ARC
  5
A13
330
A02
100
AcDbEntity
  8
Polyline055
100
AcDbCircle
 10
85.615258225
 20
4.609133102
 30
0.000000000
 40
1.000000000
100
AcDbArc
 50
-90.463795202
 51
89.536204798
  0
LINE
  5
A14
330
A02
100
AcDbEntity
  8
Polyline055
100
AcDbLine
 10
85.607163560
 20
3.609165865
 30
0.000000000
 11
80.607327372
 21
3.649639189
 31
0.000000000
  0
ARC
  5
A15
330
A02
100
AcDbEntity
  8
Polyline055
100
AcDbCircle
 10
80.615422037
 20
4.649606427
 30
0.000000000
 40
1.000000000
100
AcDbArc
 50
89.536204798
 51
-90.463795202
  0
LINE
  5
A16
330
A02
100
AcDbEntity
  8
Polyline055
100
AcDbLine
 10
80.623516702
 20
5.649573665
 30
0.000000000
 11
85.623352890
 21
5.609100340
 31
0.000000000
  0
CIRCLE
  5
A17
330
A02
100
AcDbEntity
  8
Circle084
100
AcDbCircle
 10
70.515802941
 20
4.731362925
 30
0.000000000
 40
3.550000489
  0
LINE
  5
A18
330
A02
100
AcDbEntity
  8
Polyline058
100
AcDbLine
 10
56.724396944
 20
5.843035370
 30
0.000000000
 11
60.424278580
 21
5.813095350
 31
0.000000000
  0
ARC
  5
A19
330
A02
100
AcDbEntity
  8
Polyline058
100
AcDbCircle
 10
60.416183874
 20
4.813122981
 30
0.000000000
 40
1.000005132
100
AcDbArc
 50
-90.463891378
 51
89.536204798
  0
LINE
  5
A1A
330
A02
100
AcDbEntity
  8
Polyline058
100
AcDbLine
 10
60.408087489
 20
3.813150625
 30
0.000000000
 11
56.708210438
 21
3.843107082
 31
0.000000000
  0
ARC
  5
A1B
330
A02
100
AcDbEntity
  8
Polyline058
100
AcDbCircle
 10
56.716305078
 20
4.843071215
 30
0.000000000
 40
0.999996895
100
AcDbArc
 50
89.536363737
 51
-90.463795203
  0
LINE
  5
A1C
330
A02
100
AcDbEntity
  8
Polyline063
100
AcDbLine
 10
-61.036966324
 20
-10.169302285
 30
0.000000000
 11
-61.036966324
 21
-30.169302285
 31
0.000000000
  0
LINE
  5
A1D
330
A02
100
AcDbEntity
  8
Polyline063
100
AcDbLine
 10
-61.036966324
 20
-30.169302285
 30
0.000000000
 11
88.963033676
 21
-30.169302285
 31
0.000000000
  0
LINE
  5
A1E
330
A02
100
AcDbEntity
  8
Polyline063
100
AcDbLine
 10
88.963033676
 20
-30.169302285
 30
0.000000000
 11
88.963033676
 21
-10.169302285
 31
0.000000000
  0
LINE
  5
A1F
330
A02
100
AcDbEntity
  8
Polyline063
100
AcDbLine
 10
88.963033676
 20
-10.169302285
 30
0.000000000
 11
-61.036966324
 21
-10.169302285
 31
0.000000000
  0
LINE
  5
A20
330
A02
100
AcDbEntity
  8
Polyline064
100
AcDbLine
 10
-51.466815567
 20
-14.348644638
 30
0.000000000
 11
-51.466815567
 21
-26.548644638
 31
0.000000000
  0
LINE
  5
A21
330
A02
100
AcDbEntity
  8
Polyline064
100
AcDbLine
 10
-51.466815567
 20
-26.548644638
 30
0.000000000
 11
-29.266815567
 21
-26.548644638
 31
0.000000000
  0
LINE
  5
A22
330
A02
100
AcDbEntity
  8
Polyline064
100
AcDbLine
 10
-29.266815567
 20
-26.548644638
 30
0.000000000
 11
-29.266815567
 21
-14.348644638
 31
0.000000000
  0
LINE
  5
A23
330
A02
100
AcDbEntity
  8
Polyline064
100
AcDbLine
 10
-29.266815567
 20
-14.348644638
 30
0.000000000
 11
-51.466815567
 21
-14.348644638
 31
0.000000000
  0
LINE
  5
A24
330
A02
100
AcDbEntity
  8
Polyline
100
AcDbLine
 10
-61.354528427
 20
14.422326088
 30
0.000000000
 11
-61.354528427
 21
-5.577673912
 31
0.000000000
  0
LINE
  5
A25
330
A02
100
AcDbEntity
  8
Polyline
100
AcDbLine
 10
-61.354528427
 20
-5.577673912
 30
0.000000000
 11
88.645471573
 21
-5.577673912
 31
0.000000000
  0
LINE
  5
A26
330
A02
100
AcDbEntity
  8
Polyline
100
AcDbLine
 10
88.645471573
 20
-5.577673912
 30
0.000000000
 11
88.645471573
 21
14.422326088
 31
0.000000000
  0
LINE
  5
A27
330
A02
100
AcDbEntity
  8
Polyline
100
AcDbLine
 10
88.645471573
 20
14.422326088
 30
0.000000000
 11
-61.354528427
 21
14.422326088
 31
0.000000000
  0
ENDSEC
  0
SECTION
  2
OBJECTS
  0
DICTIONARY
  5
F000
330
0
100
AcDbDictionary
  3
ACAD_GROUP
350
F001
  0
DICTIONARY
  5
F001
330
F000
100
AcDbDictionary
  0
ENDSEC
  0
EOF